{
    "asset" : {
        "generator" : "Khronos glTF Blender I/O v3.3.27",
        "version" : "2.0"
    },
    "scene" : 0,
    "scenes" : [
        {
            "name" : "Scene",
            "nodes" : [
                0
            ]
        }
    ],
    "nodes" : [
        {
            "mesh" : 0,
            "name" : "rock"
        }
    ],
    "meshes" : [
        {
            "name" : "rock",
            "primitives" : [
                {
                    "attributes" : {
                        "POSITION" : 0,
                        "NORMAL" : 1
                    },
                    "indices" : 2
                }
            ]
        }
    ],
    "accessors" : [
        {
            "bufferView" : 0,
            "componentType" : 5126,
            "count" : 31445,
            "max" : [
                1.5230618715286255,
                1.4608147144317627,
                1.5760891437530518
            ],
            "min" : [
                -1.1865479946136475,
                -1.180118203163147,
                -1.79417884349823
            ],
            "type" : "VEC3"
        },
        {
            "bufferView" : 1,
            "componentType" : 5126,
            "count" : 31445,
            "type" : "VEC3"
        },
        {
            "bufferView" : 2,
            "componentType" : 5123,
            "count" : 184320,
            "type" : "SCALAR"
        }
    ],
    "bufferViews" : [
        {
            "buffer" : 0,
            "byteLength" : 377340,
            "byteOffset" : 0,
            "target" : 34962
        },
        {
            "buffer" : 0,
            "byteLength" : 377340,
            "byteOffset" : 377340,
            "target" : 34962
        },
        {
            "buffer" : 0,
            "byteLength" : 368640,
            "byteOffset" : 754680,
            "target" : 34963
        }
    ],
    "buffers" : [
        {
            "byteLength" : 1123320,
            "uri" : "data:application/octet-stream;base64,"
        }
    ]
}
