{
    "asset" : {
        "generator" : "Khronos glTF Blender I/O v3.3.27",
        "version" : "2.0"
    },
    "scene" : 0,
    "scenes" : [
        {
            "name" : "Scene",
            "nodes" : [
                0,
                1
            ]
        }
    ],
    "nodes" : [
        {
            "mesh" : 0,
            "name" : "Cube.003"
        },
        {
            "mesh" : 1,
            "name" : "Cone",
            "translation" : [
                0.0054891109466552734,
                -0.4638809561729431,
                -2.2294840812683105
            ]
        }
    ],
    "animations" : [
        {
            "channels" : [
                {
                    "sampler" : 0,
                    "target" : {
                        "node" : 0,
                        "path" : "translation"
                    }
                },
                {
                    "sampler" : 1,
                    "target" : {
                        "node" : 0,
                        "path" : "rotation"
                    }
                },
                {
                    "sampler" : 2,
                    "target" : {
                        "node" : 0,
                        "path" : "scale"
                    }
                }
            ],
            "name" : "Cube.003",
            "samplers" : [
                {
                    "input" : 25,
                    "interpolation" : "LINEAR",
                    "output" : 26
                },
                {
                    "input" : 25,
                    "interpolation" : "LINEAR",
                    "output" : 27
                },
                {
                    "input" : 25,
                    "interpolation" : "LINEAR",
                    "output" : 28
                }
            ]
        },
        {
            "channels" : [
                {
                    "sampler" : 0,
                    "target" : {
                        "node" : 1,
                        "path" : "translation"
                    }
                },
                {
                    "sampler" : 1,
                    "target" : {
                        "node" : 1,
                        "path" : "rotation"
                    }
                },
                {
                    "sampler" : 2,
                    "target" : {
                        "node" : 1,
                        "path" : "scale"
                    }
                }
            ],
            "name" : "ConeAction",
            "samplers" : [
                {
                    "input" : 25,
                    "interpolation" : "LINEAR",
                    "output" : 29
                },
                {
                    "input" : 25,
                    "interpolation" : "LINEAR",
                    "output" : 30
                },
                {
                    "input" : 25,
                    "interpolation" : "LINEAR",
                    "output" : 31
                }
            ]
        }
    ],
    "materials" : [
        {
            "doubleSided" : true,
            "name" : "Mat0",
            "pbrMetallicRoughness" : {
                "baseColorFactor" : [
                    0.799103319644928,
                    0.005181401502341032,
                    0.027320900931954384,
                    1
                ],
                "metallicFactor" : 0,
                "roughnessFactor" : 0.47058823704719543
            }
        },
        {
            "doubleSided" : true,
            "name" : "Mat1",
            "pbrMetallicRoughness" : {
                "baseColorFactor" : [
                    0.7991032004356384,
                    0.1980692595243454,
                    0.035601358860731125,
                    1
                ],
                "metallicFactor" : 0,
                "roughnessFactor" : 0.5
            }
        },
        {
            "doubleSided" : true,
            "name" : "Mat2",
            "pbrMetallicRoughness" : {
                "baseColorFactor" : [
                    0.13286834955215454,
                    0.13286836445331573,
                    0.13286836445331573,
                    1
                ],
                "metallicFactor" : 0,
                "roughnessFactor" : 0.5
            }
        },
        {
            "doubleSided" : true,
            "name" : "Window_Frame",
            "pbrMetallicRoughness" : {
                "baseColorFactor" : [
                    0.0331047847867012,
                    0.033104777336120605,
                    0.0331047847867012,
                    1
                ],
                "metallicFactor" : 0,
                "roughnessFactor" : 0.5
            }
        },
        {
            "doubleSided" : true,
            "name" : "Mat4",
            "pbrMetallicRoughness" : {
                "baseColorFactor" : [
                    0,
                    0,
                    0,
                    1
                ],
                "metallicFactor" : 0,
                "roughnessFactor" : 0.5
            }
        },
        {
            "doubleSided" : true,
            "name" : "Mat3",
            "pbrMetallicRoughness" : {
                "baseColorFactor" : [
                    0.6724433898925781,
                    0.6724433302879333,
                    0.6724433898925781,
                    1
                ],
                "metallicFactor" : 0,
                "roughnessFactor" : 0.5
            }
        },
        {
            "doubleSided" : true,
            "name" : "Window",
            "pbrMetallicRoughness" : {
                "baseColorFactor" : [
                    0.4851498007774353,
                    0.8631572723388672,
                    1,
                    1
                ],
                "roughnessFactor" : 0
            }
        },
        {
            "doubleSided" : true,
            "name" : "led_spectrum_01",
            "pbrMetallicRoughness" : {}
        }
    ],
    "meshes" : [
        {
            "name" : "Cube.005",
            "primitives" : [
                {
                    "attributes" : {
                        "POSITION" : 0,
                        "NORMAL" : 1
                    },
                    "indices" : 2,
                    "material" : 0
                },
                {
                    "attributes" : {
                        "POSITION" : 3,
                        "NORMAL" : 4
                    },
                    "indices" : 5,
                    "material" : 1
                },
                {
                    "attributes" : {
                        "POSITION" : 6,
                        "NORMAL" : 7
                    },
                    "indices" : 8,
                    "material" : 2
                },
                {
                    "attributes" : {
                        "POSITION" : 9,
                        "NORMAL" : 10
                    },
                    "indices" : 11,
                    "material" : 3
                },
                {
                    "attributes" : {
                        "POSITION" : 12,
                        "NORMAL" : 13
                    },
                    "indices" : 14,
                    "material" : 4
                },
                {
                    "attributes" : {
                        "POSITION" : 15,
                        "NORMAL" : 16
                    },
                    "indices" : 17,
                    "material" : 5
                },
                {
                    "attributes" : {
                        "POSITION" : 18,
                        "NORMAL" : 19
                    },
                    "indices" : 20,
                    "material" : 6
                }
            ]
        },
        {
            "name" : "Cone",
            "primitives" : [
                {
                    "attributes" : {
                        "POSITION" : 21,
                        "NORMAL" : 22,
                        "TEXCOORD_0" : 23
                    },
                    "indices" : 24,
                    "material" : 7
                }
            ]
        }
    ],
    "accessors" : [
        {
            "bufferView" : 0,
            "componentType" : 5126,
            "count" : 24,
            "max" : [
                0.5103223919868469,
                -0.42188018560409546,
                -1.0059388875961304
            ],
            "min" : [
                -0.48209816217422485,
                -0.5411452054977417,
                -1.0073933601379395
            ],
            "type" : "VEC3"
        },
        {
            "bufferView" : 1,
            "componentType" : 5126,
            "count" : 24,
            "type" : "VEC3"
        },
        {
            "bufferView" : 2,
            "componentType" : 5123,
            "count" : 60,
            "type" : "SCALAR"
        },
        {
            "bufferView" : 3,
            "componentType" : 5126,
            "count" : 5136,
            "max" : [
                1.845661997795105,
                0.2533315420150757,
                1.948573350906372
            ],
            "min" : [
                -1.7885223627090454,
                -1.1032929420471191,
                -2.278230905532837
            ],
            "type" : "VEC3"
        },
        {
            "bufferView" : 4,
            "componentType" : 5126,
            "count" : 5136,
            "type" : "VEC3"
        },
        {
            "bufferView" : 5,
            "componentType" : 5123,
            "count" : 13326,
            "type" : "SCALAR"
        },
        {
            "bufferView" : 6,
            "componentType" : 5126,
            "count" : 14488,
            "max" : [
                1.7798023223876953,
                0.25402605533599854,
                1.948573112487793
            ],
            "min" : [
                -1.7302007675170898,
                -1.0079518556594849,
                -2.204592227935791
            ],
            "type" : "VEC3"
        },
        {
            "bufferView" : 7,
            "componentType" : 5126,
            "count" : 14488,
            "type" : "VEC3"
        },
        {
            "bufferView" : 8,
            "componentType" : 5123,
            "count" : 44301,
            "type" : "SCALAR"
        },
        {
            "bufferView" : 9,
            "componentType" : 5126,
            "count" : 248,
            "max" : [
                0.6590416431427002,
                -0.02095741033554077,
                0.49439144134521484
            ],
            "min" : [
                -0.6609150171279907,
                -0.7525206804275513,
                -1.2926133871078491
            ],
            "type" : "VEC3"
        },
        {
            "bufferView" : 10,
            "componentType" : 5126,
            "count" : 248,
            "type" : "VEC3"
        },
        {
            "bufferView" : 11,
            "componentType" : 5123,
            "count" : 636,
            "type" : "SCALAR"
        },
        {
            "bufferView" : 12,
            "componentType" : 5126,
            "count" : 570,
            "max" : [
                1.4866777658462524,
                -0.42214685678482056,
                1.5764776468276978
            ],
            "min" : [
                -1.4412816762924194,
                -0.8426744937896729,
                -0.9109288454055786
            ],
            "type" : "VEC3"
        },
        {
            "bufferView" : 13,
            "componentType" : 5126,
            "count" : 570,
            "type" : "VEC3"
        },
        {
            "bufferView" : 14,
            "componentType" : 5123,
            "count" : 1422,
            "type" : "SCALAR"
        },
        {
            "bufferView" : 15,
            "componentType" : 5126,
            "count" : 385,
            "max" : [
                0.33261430263519287,
                -0.5015314817428589,
                2.468250274658203
            ],
            "min" : [
                -0.33057570457458496,
                -0.6168688535690308,
                1.8115400075912476
            ],
            "type" : "VEC3"
        },
        {
            "bufferView" : 16,
            "componentType" : 5126,
            "count" : 385,
            "type" : "VEC3"
        },
        {
            "bufferView" : 17,
            "componentType" : 5123,
            "count" : 879,
            "type" : "SCALAR"
        },
        {
            "bufferView" : 18,
            "componentType" : 5126,
            "count" : 30,
            "max" : [
                0.6586133241653442,
                -0.02647709846496582,
                0.3840222954750061
            ],
            "min" : [
                -0.6609150171279907,
                -0.2714310586452484,
                0.17645606398582458
            ],
            "type" : "VEC3"
        },
        {
            "bufferView" : 19,
            "componentType" : 5126,
            "count" : 30,
            "type" : "VEC3"
        },
        {
            "bufferView" : 20,
            "componentType" : 5123,
            "count" : 84,
            "type" : "SCALAR"
        },
        {
            "bufferView" : 21,
            "componentType" : 5126,
            "count" : 128,
            "max" : [
                0.40485090017318726,
                0.3129420876502991,
                0.9450995326042175
            ],
            "min" : [
                -0.40485090017318726,
                -0.3129420280456543,
                -0.9450995326042175
            ],
            "type" : "VEC3"
        },
        {
            "bufferView" : 22,
            "componentType" : 5126,
            "count" : 128,
            "type" : "VEC3"
        },
        {
            "bufferView" : 23,
            "componentType" : 5126,
            "count" : 128,
            "type" : "VEC2"
        },
        {
            "bufferView" : 24,
            "componentType" : 5123,
            "count" : 186,
            "type" : "SCALAR"
        },
        {
            "bufferView" : 25,
            "componentType" : 5126,
            "count" : 432,
            "max" : [
                14.4
            ],
            "min" : [
                0.03333333333333333
            ],
            "type" : "SCALAR"
        },
        {
            "bufferView" : 26,
            "componentType" : 5126,
            "count" : 432,
            "type" : "VEC3"
        },
        {
            "bufferView" : 27,
            "componentType" : 5126,
            "count" : 432,
            "type" : "VEC4"
        },
        {
            "bufferView" : 28,
            "componentType" : 5126,
            "count" : 432,
            "type" : "VEC3"
        },
        {
            "bufferView" : 29,
            "componentType" : 5126,
            "count" : 432,
            "type" : "VEC3"
        },
        {
            "bufferView" : 30,
            "componentType" : 5126,
            "count" : 432,
            "type" : "VEC4"
        },
        {
            "bufferView" : 31,
            "componentType" : 5126,
            "count" : 432,
            "type" : "VEC3"
        }
    ],
    "bufferViews" : [
        {
            "buffer" : 0,
            "byteLength" : 288,
            "byteOffset" : 0,
            "target" : 34962
        },
        {
            "buffer" : 0,
            "byteLength" : 288,
            "byteOffset" : 288,
            "target" : 34962
        },
        {
            "buffer" : 0,
            "byteLength" : 120,
            "byteOffset" : 576,
            "target" : 34963
        },
        {
            "buffer" : 0,
            "byteLength" : 61632,
            "byteOffset" : 696,
            "target" : 34962
        },
        {
            "buffer" : 0,
            "byteLength" : 61632,
            "byteOffset" : 62328,
            "target" : 34962
        },
        {
            "buffer" : 0,
            "byteLength" : 26652,
            "byteOffset" : 123960,
            "target" : 34963
        },
        {
            "buffer" : 0,
            "byteLength" : 173856,
            "byteOffset" : 150612,
            "target" : 34962
        },
        {
            "buffer" : 0,
            "byteLength" : 173856,
            "byteOffset" : 324468,
            "target" : 34962
        },
        {
            "buffer" : 0,
            "byteLength" : 88602,
            "byteOffset" : 498324,
            "target" : 34963
        },
        {
            "buffer" : 0,
            "byteLength" : 2976,
            "byteOffset" : 586928,
            "target" : 34962
        },
        {
            "buffer" : 0,
            "byteLength" : 2976,
            "byteOffset" : 589904,
            "target" : 34962
        },
        {
            "buffer" : 0,
            "byteLength" : 1272,
            "byteOffset" : 592880,
            "target" : 34963
        },
        {
            "buffer" : 0,
            "byteLength" : 6840,
            "byteOffset" : 594152,
            "target" : 34962
        },
        {
            "buffer" : 0,
            "byteLength" : 6840,
            "byteOffset" : 600992,
            "target" : 34962
        },
        {
            "buffer" : 0,
            "byteLength" : 2844,
            "byteOffset" : 607832,
            "target" : 34963
        },
        {
            "buffer" : 0,
            "byteLength" : 4620,
            "byteOffset" : 610676,
            "target" : 34962
        },
        {
            "buffer" : 0,
            "byteLength" : 4620,
            "byteOffset" : 615296,
            "target" : 34962
        },
        {
            "buffer" : 0,
            "byteLength" : 1758,
            "byteOffset" : 619916,
            "target" : 34963
        },
        {
            "buffer" : 0,
            "byteLength" : 360,
            "byteOffset" : 621676,
            "target" : 34962
        },
        {
            "buffer" : 0,
            "byteLength" : 360,
            "byteOffset" : 622036,
            "target" : 34962
        },
        {
            "buffer" : 0,
            "byteLength" : 168,
            "byteOffset" : 622396,
            "target" : 34963
        },
        {
            "buffer" : 0,
            "byteLength" : 1536,
            "byteOffset" : 622564,
            "target" : 34962
        },
        {
            "buffer" : 0,
            "byteLength" : 1536,
            "byteOffset" : 624100,
            "target" : 34962
        },
        {
            "buffer" : 0,
            "byteLength" : 1024,
            "byteOffset" : 625636,
            "target" : 34962
        },
        {
            "buffer" : 0,
            "byteLength" : 372,
            "byteOffset" : 626660,
            "target" : 34963
        },
        {
            "buffer" : 0,
            "byteLength" : 1728,
            "byteOffset" : 627032
        },
        {
            "buffer" : 0,
            "byteLength" : 5184,
            "byteOffset" : 628760
        },
        {
            "buffer" : 0,
            "byteLength" : 6912,
            "byteOffset" : 633944
        },
        {
            "buffer" : 0,
            "byteLength" : 5184,
            "byteOffset" : 640856
        },
        {
            "buffer" : 0,
            "byteLength" : 5184,
            "byteOffset" : 646040
        },
        {
            "buffer" : 0,
            "byteLength" : 6912,
            "byteOffset" : 651224
        },
        {
            "buffer" : 0,
            "byteLength" : 5184,
            "byteOffset" : 658136
        }
    ],
    "buffers" : [
        {
            "byteLength" : 663320,
            "uri" : "data:application/octet-stream;base64,"
        }
    ]
}
